<svg width="169" height="73" viewBox="0 0 169 73" fill="none" xmlns="http://www.w3.org/2000/svg">
<path d="M57.3583 18.0205H68.2445C72.9021 18.0205 76.4271 18.6745 78.8197 19.9824C81.2123 21.2904 82.4086 23.5872 82.4086 26.873C82.4086 28.1969 82.1933 29.3932 81.7626 30.4619C81.3479 31.5306 80.7418 32.4079 79.9442 33.0938C79.1467 33.7796 78.1737 34.2262 77.0253 34.4336V34.6729C78.1897 34.9121 79.2424 35.3268 80.1835 35.917C81.1246 36.4912 81.8742 37.3366 82.4325 38.4531C83.0067 39.5537 83.2938 41.0212 83.2938 42.8555C83.2938 44.9769 82.7754 46.7952 81.7387 48.3105C80.7019 49.8258 79.2185 50.9902 77.2885 51.8037C75.3744 52.6012 73.0935 53 70.4457 53H57.3583V18.0205ZM64.7753 31.8735H69.0819C71.2352 31.8735 72.7266 31.5386 73.556 30.8687C74.3855 30.1828 74.8002 29.1779 74.8002 27.854C74.8002 26.5142 74.3057 25.5571 73.3168 24.9829C72.3438 24.3927 70.7966 24.0977 68.6752 24.0977H64.7753V31.8735ZM64.7753 37.7593V46.875H69.6083C71.8414 46.875 73.3965 46.4443 74.2738 45.583C75.1511 44.7217 75.5897 43.5653 75.5897 42.1138C75.5897 41.2524 75.3983 40.4948 75.0155 39.8408C74.6327 39.1868 73.9867 38.6764 73.0775 38.3096C72.1843 37.9427 70.9481 37.7593 69.369 37.7593H64.7753ZM90.2802 53V18.0205H97.6972V46.875H111.885V53H90.2802ZM132.844 23.6909C131.425 23.6909 130.164 23.9701 129.064 24.5283C127.979 25.0706 127.062 25.8602 126.312 26.897C125.579 27.9338 125.02 29.1859 124.638 30.6533C124.255 32.1208 124.063 33.7716 124.063 35.606C124.063 38.0783 124.366 40.1917 124.973 41.9463C125.595 43.6849 126.552 45.0168 127.844 45.9419C129.136 46.8511 130.802 47.3057 132.844 47.3057C134.264 47.3057 135.683 47.1462 137.103 46.8271C138.538 46.5081 140.094 46.0535 141.768 45.4634V51.6841C140.221 52.3221 138.698 52.7767 137.199 53.0479C135.699 53.335 134.016 53.4785 132.15 53.4785C128.545 53.4785 125.579 52.7368 123.25 51.2534C120.937 49.7541 119.222 47.6646 118.106 44.9849C116.989 42.2892 116.431 39.147 116.431 35.5581C116.431 32.9103 116.79 30.4858 117.508 28.2847C118.225 26.0835 119.278 24.1774 120.666 22.5664C122.054 20.9554 123.768 19.7113 125.81 18.834C127.852 17.9567 130.196 17.5181 132.844 17.5181C134.583 17.5181 136.321 17.7414 138.06 18.188C139.815 18.6187 141.489 19.2168 143.084 19.9824L140.692 26.0117C139.384 25.3896 138.068 24.8473 136.744 24.3848C135.42 23.9222 134.12 23.6909 132.844 23.6909Z" fill="#3F3939"/>
<path d="M56.7188 61.2891H58.4961C59.2565 61.2891 59.832 61.3958 60.2227 61.6094C60.6133 61.8229 60.8086 62.1979 60.8086 62.7344C60.8086 62.9505 60.7734 63.1458 60.7031 63.3203C60.6354 63.4948 60.5365 63.638 60.4062 63.75C60.276 63.862 60.1172 63.9349 59.9297 63.9688V64.0078C60.1198 64.0469 60.2917 64.1146 60.4453 64.2109C60.599 64.3047 60.7214 64.4427 60.8125 64.625C60.9062 64.8047 60.9531 65.0443 60.9531 65.3438C60.9531 65.6901 60.8685 65.987 60.6992 66.2344C60.5299 66.4818 60.2878 66.6719 59.9727 66.8047C59.6602 66.9349 59.2878 67 58.8555 67H56.7188V61.2891ZM57.9297 63.5508H58.6328C58.9844 63.5508 59.2279 63.4961 59.3633 63.3867C59.4987 63.2747 59.5664 63.1107 59.5664 62.8945C59.5664 62.6758 59.4857 62.5195 59.3242 62.4258C59.1654 62.3294 58.9128 62.2812 58.5664 62.2812H57.9297V63.5508ZM57.9297 64.5117V66H58.7188C59.0833 66 59.3372 65.9297 59.4805 65.7891C59.6237 65.6484 59.6953 65.4596 59.6953 65.2227C59.6953 65.082 59.6641 64.9583 59.6016 64.8516C59.5391 64.7448 59.4336 64.6615 59.2852 64.6016C59.1393 64.5417 58.9375 64.5117 58.6797 64.5117H57.9297ZM65.3828 67H62.0938V61.2891H65.3828V62.2812H63.3047V63.5352H65.2383V64.5273H63.3047V66H65.3828V67ZM69.9492 65.4141C69.9492 65.7526 69.8672 66.0469 69.7031 66.2969C69.5391 66.5469 69.2995 66.7396 68.9844 66.875C68.6719 67.0104 68.2917 67.0781 67.8438 67.0781C67.6458 67.0781 67.4518 67.0651 67.2617 67.0391C67.0742 67.013 66.8932 66.9753 66.7188 66.9258C66.5469 66.8737 66.3828 66.8099 66.2266 66.7344V65.6094C66.4974 65.7292 66.7786 65.8372 67.0703 65.9336C67.362 66.0299 67.651 66.0781 67.9375 66.0781C68.1354 66.0781 68.2943 66.0521 68.4141 66C68.5365 65.9479 68.625 65.8763 68.6797 65.7852C68.7344 65.694 68.7617 65.5898 68.7617 65.4727C68.7617 65.3294 68.7135 65.207 68.6172 65.1055C68.5208 65.0039 68.388 64.9089 68.2188 64.8203C68.0521 64.7318 67.8633 64.6367 67.6523 64.5352C67.5195 64.4727 67.375 64.3971 67.2188 64.3086C67.0625 64.2174 66.9141 64.1068 66.7734 63.9766C66.6328 63.8464 66.5169 63.6888 66.4258 63.5039C66.3372 63.3164 66.293 63.0924 66.293 62.832C66.293 62.4909 66.3711 62.1992 66.5273 61.957C66.6836 61.7148 66.9062 61.5299 67.1953 61.4023C67.487 61.2721 67.8307 61.207 68.2266 61.207C68.5234 61.207 68.806 61.2422 69.0742 61.3125C69.3451 61.3802 69.6276 61.4792 69.9219 61.6094L69.5312 62.5508C69.2682 62.444 69.0326 62.362 68.8242 62.3047C68.6159 62.2448 68.4036 62.2148 68.1875 62.2148C68.0365 62.2148 67.9076 62.2396 67.8008 62.2891C67.694 62.3359 67.6133 62.4036 67.5586 62.4922C67.5039 62.5781 67.4766 62.6784 67.4766 62.793C67.4766 62.9284 67.5156 63.043 67.5938 63.1367C67.6745 63.2279 67.7943 63.3164 67.9531 63.4023C68.1146 63.4883 68.3151 63.5885 68.5547 63.7031C68.8464 63.8411 69.0951 63.9857 69.3008 64.1367C69.5091 64.2852 69.6693 64.4609 69.7812 64.6641C69.8932 64.8646 69.9492 65.1146 69.9492 65.4141ZM73.1875 67H71.9766V62.2969H70.4258V61.2891H74.7383V62.2969H73.1875V67ZM79.7734 67V61.2891H80.9844V66H83.3008V67H79.7734ZM89.4805 64.1367C89.4805 64.5768 89.4258 64.9779 89.3164 65.3398C89.207 65.6992 89.0404 66.0091 88.8164 66.2695C88.5951 66.5299 88.3138 66.7305 87.9727 66.8711C87.6315 67.0091 87.2279 67.0781 86.7617 67.0781C86.2956 67.0781 85.8919 67.0091 85.5508 66.8711C85.2096 66.7305 84.9271 66.5299 84.7031 66.2695C84.4818 66.0091 84.3164 65.6979 84.207 65.3359C84.0977 64.974 84.043 64.5716 84.043 64.1289C84.043 63.5378 84.1393 63.0234 84.332 62.5859C84.5273 62.1458 84.8268 61.8047 85.2305 61.5625C85.6341 61.3203 86.1471 61.1992 86.7695 61.1992C87.3893 61.1992 87.8984 61.3203 88.2969 61.5625C88.6979 61.8047 88.9948 62.1458 89.1875 62.5859C89.3828 63.026 89.4805 63.543 89.4805 64.1367ZM85.3125 64.1367C85.3125 64.5352 85.362 64.8789 85.4609 65.168C85.5625 65.4544 85.7201 65.6758 85.9336 65.832C86.1471 65.9857 86.4232 66.0625 86.7617 66.0625C87.1055 66.0625 87.3841 65.9857 87.5977 65.832C87.8112 65.6758 87.9661 65.4544 88.0625 65.168C88.1615 64.8789 88.2109 64.5352 88.2109 64.1367C88.2109 63.5378 88.099 63.0664 87.875 62.7227C87.651 62.3789 87.2826 62.207 86.7695 62.207C86.4284 62.207 86.1497 62.2852 85.9336 62.4414C85.7201 62.5951 85.5625 62.8164 85.4609 63.1055C85.362 63.3919 85.3125 63.7357 85.3125 64.1367ZM92.832 63.793H95.0977V66.7539C94.7982 66.8529 94.487 66.9323 94.1641 66.9922C93.8411 67.0495 93.4753 67.0781 93.0664 67.0781C92.4987 67.0781 92.0169 66.9661 91.6211 66.7422C91.2253 66.5182 90.9245 66.1875 90.7188 65.75C90.513 65.3125 90.4102 64.7747 90.4102 64.1367C90.4102 63.5378 90.5247 63.0195 90.7539 62.582C90.9857 62.1445 91.3229 61.806 91.7656 61.5664C92.2109 61.3268 92.7539 61.207 93.3945 61.207C93.6966 61.207 93.9948 61.2396 94.2891 61.3047C94.5833 61.3698 94.8503 61.4544 95.0898 61.5586L94.6875 62.5273C94.513 62.4388 94.3138 62.3646 94.0898 62.3047C93.8659 62.2448 93.6315 62.2148 93.3867 62.2148C93.0352 62.2148 92.7292 62.2956 92.4688 62.457C92.2109 62.6185 92.0104 62.8451 91.8672 63.1367C91.7266 63.4258 91.6562 63.7669 91.6562 64.1602C91.6562 64.5326 91.707 64.8633 91.8086 65.1523C91.9102 65.4388 92.0703 65.6641 92.2891 65.8281C92.5078 65.9896 92.793 66.0703 93.1445 66.0703C93.3164 66.0703 93.4609 66.0625 93.5781 66.0469C93.6979 66.0286 93.8099 66.0104 93.9141 65.9922V64.8008H92.832V63.793ZM96.4609 67V61.2891H97.6719V67H96.4609ZM102.48 65.4141C102.48 65.7526 102.398 66.0469 102.234 66.2969C102.07 66.5469 101.831 66.7396 101.516 66.875C101.203 67.0104 100.823 67.0781 100.375 67.0781C100.177 67.0781 99.9831 67.0651 99.793 67.0391C99.6055 67.013 99.4245 66.9753 99.25 66.9258C99.0781 66.8737 98.9141 66.8099 98.7578 66.7344V65.6094C99.0286 65.7292 99.3099 65.8372 99.6016 65.9336C99.8932 66.0299 100.182 66.0781 100.469 66.0781C100.667 66.0781 100.826 66.0521 100.945 66C101.068 65.9479 101.156 65.8763 101.211 65.7852C101.266 65.694 101.293 65.5898 101.293 65.4727C101.293 65.3294 101.245 65.207 101.148 65.1055C101.052 65.0039 100.919 64.9089 100.75 64.8203C100.583 64.7318 100.395 64.6367 100.184 64.5352C100.051 64.4727 99.9062 64.3971 99.75 64.3086C99.5938 64.2174 99.4453 64.1068 99.3047 63.9766C99.1641 63.8464 99.0482 63.6888 98.957 63.5039C98.8685 63.3164 98.8242 63.0924 98.8242 62.832C98.8242 62.4909 98.9023 62.1992 99.0586 61.957C99.2148 61.7148 99.4375 61.5299 99.7266 61.4023C100.018 61.2721 100.362 61.207 100.758 61.207C101.055 61.207 101.337 61.2422 101.605 61.3125C101.876 61.3802 102.159 61.4792 102.453 61.6094L102.062 62.5508C101.799 62.444 101.564 62.362 101.355 62.3047C101.147 62.2448 100.935 62.2148 100.719 62.2148C100.568 62.2148 100.439 62.2396 100.332 62.2891C100.225 62.3359 100.145 62.4036 100.09 62.4922C100.035 62.5781 100.008 62.6784 100.008 62.793C100.008 62.9284 100.047 63.043 100.125 63.1367C100.206 63.2279 100.326 63.3164 100.484 63.4023C100.646 63.4883 100.846 63.5885 101.086 63.7031C101.378 63.8411 101.626 63.9857 101.832 64.1367C102.04 64.2852 102.201 64.4609 102.312 64.6641C102.424 64.8646 102.48 65.1146 102.48 65.4141ZM105.719 67H104.508V62.2969H102.957V61.2891H107.27V62.2969H105.719V67ZM108.148 67V61.2891H109.359V67H108.148ZM113.223 62.2148C112.991 62.2148 112.785 62.2604 112.605 62.3516C112.428 62.4401 112.279 62.569 112.156 62.7383C112.036 62.9076 111.945 63.112 111.883 63.3516C111.82 63.5911 111.789 63.8607 111.789 64.1602C111.789 64.5638 111.839 64.9089 111.938 65.1953C112.039 65.4792 112.195 65.6966 112.406 65.8477C112.617 65.9961 112.889 66.0703 113.223 66.0703C113.454 66.0703 113.686 66.0443 113.918 65.9922C114.152 65.9401 114.406 65.8659 114.68 65.7695V66.7852C114.427 66.8893 114.178 66.9635 113.934 67.0078C113.689 67.0547 113.414 67.0781 113.109 67.0781C112.521 67.0781 112.036 66.957 111.656 66.7148C111.279 66.4701 110.999 66.1289 110.816 65.6914C110.634 65.2513 110.543 64.7383 110.543 64.1523C110.543 63.7201 110.602 63.3242 110.719 62.9648C110.836 62.6055 111.008 62.2943 111.234 62.0312C111.461 61.7682 111.741 61.5651 112.074 61.4219C112.408 61.2786 112.79 61.207 113.223 61.207C113.507 61.207 113.79 61.2435 114.074 61.3164C114.361 61.3867 114.634 61.4844 114.895 61.6094L114.504 62.5938C114.29 62.4922 114.076 62.4036 113.859 62.3281C113.643 62.2526 113.431 62.2148 113.223 62.2148ZM122.48 62.2148C122.249 62.2148 122.043 62.2604 121.863 62.3516C121.686 62.4401 121.536 62.569 121.414 62.7383C121.294 62.9076 121.203 63.112 121.141 63.3516C121.078 63.5911 121.047 63.8607 121.047 64.1602C121.047 64.5638 121.096 64.9089 121.195 65.1953C121.297 65.4792 121.453 65.6966 121.664 65.8477C121.875 65.9961 122.147 66.0703 122.48 66.0703C122.712 66.0703 122.944 66.0443 123.176 65.9922C123.41 65.9401 123.664 65.8659 123.938 65.7695V66.7852C123.685 66.8893 123.436 66.9635 123.191 67.0078C122.947 67.0547 122.672 67.0781 122.367 67.0781C121.779 67.0781 121.294 66.957 120.914 66.7148C120.536 66.4701 120.257 66.1289 120.074 65.6914C119.892 65.2513 119.801 64.7383 119.801 64.1523C119.801 63.7201 119.859 63.3242 119.977 62.9648C120.094 62.6055 120.266 62.2943 120.492 62.0312C120.719 61.7682 120.999 61.5651 121.332 61.4219C121.665 61.2786 122.048 61.207 122.48 61.207C122.764 61.207 123.048 61.2435 123.332 61.3164C123.618 61.3867 123.892 61.4844 124.152 61.6094L123.762 62.5938C123.548 62.4922 123.333 62.4036 123.117 62.3281C122.901 62.2526 122.689 62.2148 122.48 62.2148ZM130.34 64.1367C130.34 64.5768 130.285 64.9779 130.176 65.3398C130.066 65.6992 129.9 66.0091 129.676 66.2695C129.454 66.5299 129.173 66.7305 128.832 66.8711C128.491 67.0091 128.087 67.0781 127.621 67.0781C127.155 67.0781 126.751 67.0091 126.41 66.8711C126.069 66.7305 125.786 66.5299 125.562 66.2695C125.341 66.0091 125.176 65.6979 125.066 65.3359C124.957 64.974 124.902 64.5716 124.902 64.1289C124.902 63.5378 124.999 63.0234 125.191 62.5859C125.387 62.1458 125.686 61.8047 126.09 61.5625C126.493 61.3203 127.007 61.1992 127.629 61.1992C128.249 61.1992 128.758 61.3203 129.156 61.5625C129.557 61.8047 129.854 62.1458 130.047 62.5859C130.242 63.026 130.34 63.543 130.34 64.1367ZM126.172 64.1367C126.172 64.5352 126.221 64.8789 126.32 65.168C126.422 65.4544 126.579 65.6758 126.793 65.832C127.007 65.9857 127.283 66.0625 127.621 66.0625C127.965 66.0625 128.243 65.9857 128.457 65.832C128.671 65.6758 128.826 65.4544 128.922 65.168C129.021 64.8789 129.07 64.5352 129.07 64.1367C129.07 63.5378 128.958 63.0664 128.734 62.7227C128.51 62.3789 128.142 62.207 127.629 62.207C127.288 62.207 127.009 62.2852 126.793 62.4414C126.579 62.5951 126.422 62.8164 126.32 63.1055C126.221 63.3919 126.172 63.7357 126.172 64.1367ZM133.941 67L132.566 62.5195H132.531C132.536 62.6263 132.544 62.7878 132.555 63.0039C132.568 63.2174 132.579 63.4453 132.59 63.6875C132.6 63.9297 132.605 64.1484 132.605 64.3438V67H131.523V61.2891H133.172L134.523 65.6562H134.547L135.98 61.2891H137.629V67H136.5V64.2969C136.5 64.1172 136.503 63.9102 136.508 63.6758C136.516 63.4414 136.525 63.2188 136.535 63.0078C136.546 62.7943 136.553 62.6341 136.559 62.5273H136.523L135.051 67H133.941ZM140.895 61.2891C141.632 61.2891 142.169 61.4479 142.508 61.7656C142.846 62.0807 143.016 62.5156 143.016 63.0703C143.016 63.3203 142.978 63.5599 142.902 63.7891C142.827 64.0156 142.703 64.2174 142.531 64.3945C142.362 64.5716 142.135 64.7122 141.852 64.8164C141.568 64.918 141.217 64.9688 140.801 64.9688H140.281V67H139.07V61.2891H140.895ZM140.832 62.2812H140.281V63.9766H140.68C140.906 63.9766 141.103 63.9466 141.27 63.8867C141.436 63.8268 141.565 63.7331 141.656 63.6055C141.747 63.4779 141.793 63.3138 141.793 63.1133C141.793 62.832 141.715 62.6237 141.559 62.4883C141.402 62.3503 141.16 62.2812 140.832 62.2812ZM147.59 67L147.176 65.6406H145.094L144.68 67H143.375L145.391 61.2656H146.871L148.895 67H147.59ZM146.887 64.625L146.473 63.2969C146.447 63.2083 146.411 63.0951 146.367 62.957C146.326 62.8164 146.283 62.6745 146.238 62.5312C146.197 62.3854 146.163 62.2591 146.137 62.1523C146.111 62.2591 146.074 62.3919 146.027 62.5508C145.983 62.707 145.94 62.8555 145.898 62.9961C145.857 63.1367 145.827 63.237 145.809 63.2969L145.398 64.625H146.887ZM154.684 67H153.145L150.66 62.6797H150.625C150.635 62.8594 150.645 63.0404 150.652 63.2227C150.66 63.4049 150.668 63.5872 150.676 63.7695C150.684 63.9492 150.691 64.1302 150.699 64.3125V67H149.617V61.2891H151.145L153.625 65.5664H153.652C153.647 65.3893 153.641 65.2135 153.633 65.0391C153.625 64.8646 153.617 64.6901 153.609 64.5156C153.604 64.3411 153.599 64.1667 153.594 63.9922V61.2891H154.684V67ZM157.902 63.6406L159.094 61.2891H160.398L158.504 64.7773V67H157.301V64.8164L155.406 61.2891H156.719L157.902 63.6406Z" fill="#423A3B"/>
<path fill-rule="evenodd" clip-rule="evenodd" d="M0.496885 29.1195L13.5848 36.9422C13.6223 36.9646 13.6547 36.9947 13.68 37.0304L15.4628 39.5561C15.5001 39.609 15.5201 39.672 15.5201 39.7367V47.2521C15.5201 47.3801 15.4422 47.4952 15.3233 47.5428L13.6299 48.2201C13.4169 48.3053 13.3649 48.5832 13.5326 48.7397L15.4207 50.5019C15.4841 50.5611 15.5201 50.644 15.5201 50.7308V57.7929C15.5201 57.8928 15.4725 57.9867 15.3918 58.0457L11.6109 60.8086C11.5129 60.8803 11.3822 60.8888 11.2757 60.8304L0.185826 54.7538C0.085543 54.6988 0.0231972 54.5936 0.0231972 54.4792V35.8107C0.0231972 35.5666 0.290107 35.4164 0.498743 35.5431L4.25558 37.824C4.34908 37.8808 4.40617 37.9822 4.40617 38.0916V41.6446C4.40617 41.7583 4.46781 41.863 4.5672 41.9183L10.9851 45.4838C11.1938 45.5997 11.4502 45.4488 11.4502 45.2101V39.8184C11.4502 39.7064 11.3904 39.6029 11.2933 39.547L0.18014 33.1531C0.0830457 33.0973 0.0231972 32.9938 0.0231972 32.8818V29.3883C0.0231972 29.1451 0.288208 28.9948 0.496885 29.1195ZM4.24964 51.0644V46.5248L11.2937 50.7513V55.1343L4.24964 51.0644Z" fill="#258B40"/>
<path d="M16.7726 64.3512V39.411C16.7726 39.1669 17.0395 39.0167 17.2481 39.1434L21.005 41.4243C21.0985 41.4811 21.1556 41.5825 21.1556 41.6919V61.8653C21.1556 61.9638 21.202 62.0566 21.2808 62.1157L23.5107 63.7882C23.6027 63.8572 23.7253 63.8702 23.8297 63.822L27.2858 62.2269C27.4932 62.1311 27.73 62.2826 27.73 62.5111V66.3743C27.73 66.4895 27.6668 66.5954 27.5654 66.65L23.8187 68.6674C23.7205 68.7203 23.6016 68.7169 23.5066 68.6586L16.9219 64.618C16.8291 64.5611 16.7726 64.46 16.7726 64.3512Z" fill="#218C41"/>
<path d="M28.8258 45.0429V40.2862C28.8258 40.1752 28.8846 40.0724 28.9804 40.0162L47.295 29.2696C47.5037 29.1472 47.7665 29.2977 47.7665 29.5397V34.4477C47.7665 34.5594 47.7069 34.6627 47.6102 34.7186L29.2956 45.3139C29.0869 45.4346 28.8258 45.284 28.8258 45.0429Z" fill="#218C41"/>
<path d="M28.8258 65.2397V47.4869C28.8258 47.3758 28.8847 47.273 28.9805 47.2168L32.8939 44.9228C33.1026 44.8004 33.3653 44.9509 33.3653 45.1929V57.1023C33.3653 57.342 33.6237 57.4928 33.8324 57.3748L47.2994 49.7631C47.5081 49.6451 47.7665 49.7959 47.7665 50.0356V54.7959C47.7665 54.9083 47.7062 55.0121 47.6085 55.0678L29.2939 65.5117C29.0852 65.6307 28.8258 65.48 28.8258 65.2397Z" fill="#218C41"/>
<path fill-rule="evenodd" clip-rule="evenodd" d="M0.954605 27.0033L23.8172 13.7431C23.9137 13.687 24.0328 13.6867 24.1298 13.7422L47.2972 27.0025C47.506 27.122 47.5075 27.4227 47.2998 27.5443L24.1324 41.1094C24.0342 41.167 23.9124 41.1666 23.8145 41.1085L0.951928 27.5434C0.746323 27.4214 0.7478 27.1233 0.954605 27.0033ZM10.42 28.1464C9.76148 27.7554 9.76891 26.7995 10.4334 26.4188L23.4735 18.948C23.7828 18.7707 24.1631 18.7716 24.4716 18.9502L37.3757 26.421C38.035 26.8027 38.0425 27.752 37.3892 28.144L24.485 35.8865C24.1697 36.0756 23.7761 36.0765 23.46 35.8888L10.42 28.1464Z" fill="#218C41"/>
</svg>
