<svg width="35.000000" height="28.636230" viewBox="0 0 35 28.6362" fill="none" xmlns="http://www.w3.org/2000/svg" xmlns:xlink="http://www.w3.org/1999/xlink">
	<desc>
			Created with Pixso.
	</desc>
	<defs/>
	<path id="Vector" d="M23.68 8.66C24.09 8.66 24.48 8.68 24.88 8.73C23.82 3.72 18.47 0 12.39 0C5.56 0 0 4.65 0 10.57C0 13.98 1.86 16.8 4.95 18.98L3.72 22.72L8.05 20.54C9.6 20.85 10.84 21.16 12.39 21.16C12.79 21.16 13.16 21.14 13.56 21.11C13.3 20.29 13.16 19.41 13.16 18.5C13.16 13.08 17.8 8.66 23.68 8.66ZM17.03 5.28C17.95 5.28 18.57 5.9 18.57 6.84C18.57 7.77 17.95 8.39 17.03 8.39C16.09 8.39 15.17 7.77 15.17 6.84C15.17 5.9 16.1 5.28 17.03 5.28ZM8.35 8.39C7.43 8.39 6.49 7.77 6.49 6.84C6.49 5.89 7.43 5.28 8.35 5.28C9.29 5.28 9.9 5.9 9.9 6.84C9.9 7.77 9.29 8.39 8.35 8.39ZM35 18.36C35 13.38 30.04 9.33 24.47 9.33C18.57 9.33 13.94 13.38 13.94 18.36C13.94 23.34 18.58 27.39 24.47 27.39C25.7 27.39 26.95 27.07 28.2 26.76L31.6 28.63L30.66 25.53C33.15 23.65 35 21.16 35 18.36ZM21.05 16.8C20.44 16.8 19.82 16.18 19.82 15.54C19.82 14.92 20.44 14.31 21.05 14.31C21.99 14.31 22.61 14.93 22.61 15.54C22.61 16.18 21.99 16.8 21.05 16.8ZM27.87 16.8C27.25 16.8 26.64 16.18 26.64 15.54C26.64 14.92 27.26 14.31 27.87 14.31C28.79 14.31 29.42 14.93 29.42 15.54C29.43 16.18 28.79 16.8 27.87 16.8Z" fill="#218C41" fill-opacity="1.000000" fill-rule="nonzero"/>
</svg>
