<svg width="34.000000" height="27.567383" viewBox="0 0 34 27.5674" fill="none" xmlns="http://www.w3.org/2000/svg" xmlns:xlink="http://www.w3.org/1999/xlink">
	<desc>
			Created with Pixso.
	</desc>
	<defs/>
	<path id="Vector" d="M33.98 2.4C33.52 7.24 31.47 18.99 30.44 24.41C30 26.71 29.14 27.48 28.3 27.55C26.49 27.71 25.11 26.38 23.34 25.24C20.59 23.48 19.03 22.38 16.36 20.65C13.27 18.66 15.28 17.56 17.03 15.77C17.5 15.3 25.5 8.18 25.65 7.54C25.68 7.45 25.69 7.16 25.5 6.99C25.31 6.83 25.05 6.9 24.86 6.93C24.58 6.99 20.18 9.83 11.65 15.46C10.41 16.3 9.28 16.71 8.26 16.69C7.14 16.66 4.99 16.07 3.39 15.56C1.43 14.95 -0.14 14.61 0 13.55C0.07 13 0.85 12.43 2.34 11.86C11.46 7.97 17.54 5.41 20.59 4.17C29.29 0.64 31.09 0.02 32.27 0C32.53 0 33.1 0.06 33.48 0.35C33.73 0.57 33.88 0.86 33.92 1.18C33.99 1.58 34.01 1.99 33.98 2.4Z" fill="#218C41" fill-opacity="1.000000" fill-rule="evenodd"/>
</svg>
