<svg width="34.000000" height="34.000000" viewBox="0 0 34 34" fill="none" xmlns="http://www.w3.org/2000/svg" xmlns:xlink="http://www.w3.org/1999/xlink">
	<desc>
			Created with Pixso.
	</desc>
	<defs/>
	<path id="Vector" d="M28.9 4.94C25.72 1.75 21.49 0 16.99 0C7.7 0 0.14 7.55 0.14 16.84C0.14 19.81 0.91 22.71 2.39 25.27L0 34L8.93 31.65C11.39 32.99 14.16 33.7 16.98 33.7L16.99 33.7C26.27 33.7 34 26.14 34 16.85C34 12.35 32.08 8.12 28.9 4.94ZM16.99 30.86C14.47 30.86 12 30.18 9.85 28.91L9.34 28.61L4.05 30L5.46 24.83L5.13 24.3C3.72 22.06 2.99 19.49 2.99 16.84C2.99 9.12 9.27 2.84 17 2.84C20.74 2.84 24.25 4.3 26.89 6.95C29.53 9.6 31.16 13.11 31.15 16.85C31.15 24.58 24.71 30.86 16.99 30.86ZM24.67 20.37C24.25 20.16 22.18 19.14 21.79 19.01C21.4 18.86 21.12 18.79 20.84 19.22C20.56 19.64 19.76 20.58 19.51 20.87C19.26 21.15 19.01 21.19 18.6 20.98C16.12 19.74 14.5 18.77 12.87 15.97C12.43 15.23 13.3 15.28 14.1 13.67C14.24 13.39 14.17 13.15 14.07 12.93C13.96 12.72 13.12 10.65 12.77 9.81C12.43 8.99 12.08 9.1 11.82 9.09C11.58 9.07 11.3 9.07 11.01 9.07C10.73 9.07 10.28 9.18 9.89 9.6C9.5 10.02 8.42 11.04 8.42 13.11C8.42 15.18 9.93 17.18 10.13 17.47C10.35 17.75 13.1 22 17.33 23.83C20 24.98 21.05 25.08 22.38 24.88C23.2 24.76 24.87 23.86 25.22 22.88C25.57 21.89 25.57 21.05 25.46 20.87C25.37 20.68 25.09 20.58 24.67 20.37Z" fill="#218C41" fill-opacity="1.000000" fill-rule="nonzero"/>
</svg>
