<svg width="16" height="16" viewBox="0 0 16 16" fill="none" xmlns="http://www.w3.org/2000/svg">
<path fill-rule="evenodd" clip-rule="evenodd" d="M0.231479 0.231479C0.526485 -0.0635265 0.989747 -0.0785636 1.2662 0.197893L15.1312 14.0629C15.4077 14.3394 15.3926 14.8026 15.0976 15.0976C14.8026 15.3926 14.3394 15.4077 14.0629 15.1312L0.197893 1.2662C-0.0785636 0.989747 -0.0635265 0.526485 0.231479 0.231479Z" fill="#0062CC"/>
<path fill-rule="evenodd" clip-rule="evenodd" d="M15.0976 0.302329C15.3926 0.597335 15.409 1.05919 15.1343 1.33391L1.35645 15.1118C1.08173 15.3865 0.619873 15.37 0.324867 15.075C0.0298616 14.78 0.0134165 14.3182 0.288135 14.0435L14.066 0.265596C14.3407 -0.00912294 14.8026 0.00732285 15.0976 0.302329Z" fill="#0062CC"/>
</svg>
