<svg width="19.000031" height="19.000000" viewBox="0 0 19 19" fill="none" xmlns="http://www.w3.org/2000/svg" xmlns:xlink="http://www.w3.org/1999/xlink">
	<desc>
			Created with Pixso.
	</desc>
	<defs/>
	<path d="M1.98 0.73C1.66 0.4 1.11 0.42 0.77 0.77C0.42 1.11 0.4 1.66 0.73 1.98L8.28 9.54L0.83 16.99C0.51 17.31 0.53 17.85 0.88 18.2C1.22 18.54 1.77 18.56 2.09 18.24L9.54 10.79L17.01 18.26C17.33 18.59 17.88 18.57 18.22 18.22C18.57 17.88 18.59 17.33 18.26 17.01L10.79 9.54L18.27 2.06C18.59 1.74 18.57 1.2 18.22 0.85C17.88 0.5 17.33 0.48 17.01 0.81L9.54 8.28L1.98 0.73Z" fill="#4A4444" fill-opacity="1.000000" fill-rule="evenodd"/>
	<path d="M0.77 0.77C0.42 1.11 0.4 1.66 0.73 1.98L17.01 18.26C17.33 18.59 17.88 18.57 18.22 18.22C18.57 17.88 18.59 17.33 18.26 17.01L1.98 0.73C1.66 0.4 1.11 0.42 0.77 0.77ZM18.22 0.85C17.88 0.5 17.33 0.48 17.01 0.81L0.83 16.99C0.51 17.31 0.53 17.85 0.88 18.2C1.22 18.54 1.77 18.56 2.09 18.24L18.27 2.06C18.59 1.74 18.57 1.2 18.22 0.85Z" stroke="#3F3939" stroke-opacity="1.000000" stroke-width="1.000000"/>
</svg>
