<svg width="160.343994" height="55.100250" viewBox="0 0 160.344 55.1003" fill="none" xmlns="http://www.w3.org/2000/svg" xmlns:xlink="http://www.w3.org/1999/xlink">
	<desc>
			Created with Pixso.
	</desc>
	<defs/>
	<path d="M129.02 9.86Q130.66 9.03 132.79 9.03C134.07 9.03 135.37 9.26 136.69 9.73C138.02 10.19 139.33 10.73 140.64 11.35L143.03 5.32C141.44 4.56 139.77 3.96 138.02 3.52C136.27 3.08 134.53 2.86 132.79 2.86C130.14 2.86 127.8 3.3 125.76 4.18C123.72 5.05 122 6.3 120.61 7.91Q118.53 10.33 117.46 13.63Q116.38 16.93 116.38 20.9C116.38 24.49 116.94 27.63 118.05 30.32C119.17 33 120.89 35.09 123.21 36.58C125.53 38.08 128.49 38.82 132.1 38.82C133.96 38.82 135.65 38.68 137.15 38.4C138.65 38.12 140.17 37.66 141.72 37.03L141.72 30.81C140.04 31.4 138.49 31.85 137.06 32.17C135.64 32.49 134.21 32.65 132.79 32.65C130.75 32.65 129.08 32.19 127.79 31.27C126.5 30.36 125.55 29.02 124.93 27.28C124.32 25.53 124.01 23.42 124.01 20.95Q124.01 18.2 124.59 16Q125.16 13.79 126.27 12.24C127.01 11.2 127.93 10.41 129.02 9.86ZM57.33 3.36L68.22 3.36C72.87 3.36 76.4 4.02 78.79 5.32Q79.96 5.96 80.75 6.92Q82.38 8.89 82.38 12.22C82.38 13.54 82.17 14.74 81.75 15.8C81.32 16.87 80.71 17.75 79.92 18.44C79.12 19.12 78.15 19.57 77 19.78L77 20.02C78.16 20.25 79.21 20.67 80.16 21.25C81.1 21.83 81.85 22.68 82.42 23.78C82.98 24.89 83.27 26.36 83.27 28.2C83.27 30.32 82.75 32.14 81.71 33.65C80.67 35.17 79.19 36.33 77.27 37.13C75.35 37.94 73.07 38.34 70.42 38.34L57.33 38.34L57.33 3.36ZM90.25 38.34L90.25 3.36L97.67 3.36L97.67 32.22L111.86 32.22L111.86 38.34L90.25 38.34ZM64.75 17.22L69.05 17.22Q72.28 17.22 73.53 16.2C74.36 15.52 74.77 14.52 74.77 13.2Q74.77 11.87 74.13 11.04Q73.8 10.61 73.3 10.31C72.32 9.73 70.77 9.44 68.65 9.44L64.75 9.44L64.75 17.22ZM64.75 23.1L64.75 32.22L69.58 32.22Q72.93 32.22 74.25 30.93Q74.55 30.62 74.79 30.27Q75.56 29.12 75.56 27.46C75.56 26.59 75.37 25.84 74.99 25.18C74.6 24.53 73.96 24.02 73.06 23.65C72.16 23.29 70.92 23.1 69.34 23.1L64.75 23.1Z" fill="#3F3939" fill-opacity="1.000000" fill-rule="evenodd"/>
	<path d="M89.44 50.48Q89.44 51.14 89.28 51.68C89.17 52.04 89.01 52.35 88.78 52.61C88.56 52.87 88.28 53.07 87.94 53.21C87.6 53.35 87.19 53.42 86.73 53.42C86.26 53.42 85.86 53.35 85.51 53.21C85.17 53.07 84.89 52.87 84.67 52.61C84.45 52.35 84.28 52.04 84.17 51.68Q84.01 51.14 84.01 50.47C84.01 49.88 84.1 49.37 84.3 48.93Q84.46 48.56 84.72 48.29Q84.92 48.07 85.19 47.9C85.6 47.66 86.11 47.54 86.73 47.54Q87.66 47.54 88.26 47.9Q88.52 48.06 88.71 48.26Q88.98 48.55 89.15 48.93C89.35 49.37 89.44 49.89 89.44 50.48ZM130.29 50.48Q130.29 51.14 130.13 51.68C130.02 52.04 129.85 52.35 129.63 52.61C129.41 52.87 129.13 53.07 128.78 53.21C128.44 53.35 128.04 53.42 127.57 53.42C127.11 53.42 126.7 53.35 126.36 53.21C126.02 53.07 125.74 52.87 125.52 52.61C125.29 52.35 125.13 52.04 125.02 51.68Q124.86 51.14 124.86 50.47C124.86 49.88 124.95 49.37 125.15 48.93Q125.31 48.56 125.56 48.29Q125.77 48.07 126.04 47.9C126.45 47.66 126.96 47.54 127.58 47.54Q128.51 47.54 129.11 47.9Q129.36 48.06 129.56 48.26L129.56 48.26Q129.83 48.55 130 48.93C130.2 49.37 130.29 49.89 130.29 50.48ZM69.92 51.76C69.92 52.1 69.84 52.39 69.67 52.64C69.51 52.89 69.27 53.08 68.95 53.22Q68.48 53.42 67.81 53.42C67.61 53.42 67.42 53.41 67.23 53.38C67.04 53.36 66.86 53.32 66.69 53.27C66.52 53.22 66.35 53.15 66.19 53.08L66.19 51.95C66.47 52.07 66.75 52.18 67.04 52.28Q67.48 52.42 67.91 52.42C68.1 52.42 68.26 52.39 68.38 52.34C68.51 52.29 68.59 52.22 68.65 52.13C68.7 52.04 68.73 51.93 68.73 51.82C68.73 51.67 68.68 51.55 68.59 51.45C68.49 51.35 68.36 51.25 68.19 51.16C68.02 51.07 67.83 50.98 67.62 50.88Q67.42 50.78 67.19 50.65C67.03 50.56 66.88 50.45 66.74 50.32Q66.53 50.12 66.4 49.84C66.31 49.66 66.26 49.43 66.26 49.17Q66.26 48.67 66.49 48.31L66.49 48.31Q66.49 48.3 66.5 48.3C66.65 48.06 66.87 47.87 67.17 47.74C67.46 47.61 67.8 47.55 68.19 47.55C68.49 47.55 68.77 47.58 69.04 47.65C69.31 47.72 69.6 47.82 69.89 47.95L69.5 48.89C69.24 48.79 69 48.7 68.79 48.65C68.58 48.59 68.37 48.56 68.16 48.56C68 48.56 67.88 48.58 67.77 48.63C67.66 48.68 67.58 48.75 67.53 48.83C67.47 48.92 67.44 49.02 67.44 49.14C67.44 49.27 67.48 49.38 67.56 49.48C67.64 49.57 67.76 49.66 67.92 49.74C68.08 49.83 68.28 49.93 68.52 50.05C68.81 50.18 69.06 50.33 69.27 50.48C69.48 50.63 69.64 50.8 69.75 51C69.86 51.21 69.92 51.46 69.92 51.76ZM92.8 50.14L95.06 50.14L95.06 53.1C94.76 53.2 94.45 53.27 94.13 53.33C93.81 53.39 93.44 53.42 93.03 53.42C92.46 53.42 91.98 53.31 91.59 53.08Q91.39 52.97 91.22 52.82L91.22 52.82Q90.89 52.53 90.68 52.09C90.48 51.65 90.37 51.12 90.37 50.48Q90.37 49.58 90.72 48.92C90.95 48.49 91.29 48.15 91.73 47.91C92.18 47.67 92.72 47.55 93.36 47.55C93.66 47.55 93.96 47.58 94.25 47.65C94.55 47.71 94.81 47.8 95.05 47.9L94.65 48.87Q94.39 48.74 94.05 48.65Q93.72 48.56 93.35 48.56C93 48.56 92.69 48.64 92.43 48.8C92.18 48.96 91.98 49.19 91.83 49.48C91.69 49.77 91.62 50.11 91.62 50.5Q91.62 51.06 91.77 51.49C91.87 51.78 92.03 52.01 92.25 52.17Q92.58 52.41 93.11 52.41C93.28 52.41 93.43 52.4 93.54 52.39Q93.72 52.36 93.88 52.33L93.88 51.14L92.8 51.14L92.8 50.14ZM102.44 51.76C102.44 52.1 102.36 52.39 102.19 52.64C102.03 52.89 101.79 53.08 101.48 53.22Q101.01 53.42 100.34 53.42C100.14 53.42 99.94 53.41 99.76 53.38C99.57 53.36 99.39 53.32 99.21 53.27C99.04 53.22 98.87 53.15 98.72 53.08L98.72 51.95C98.99 52.07 99.27 52.18 99.56 52.28Q100 52.42 100.43 52.42C100.63 52.42 100.79 52.39 100.91 52.34C101.03 52.29 101.12 52.22 101.17 52.13C101.23 52.04 101.25 51.93 101.25 51.82C101.25 51.67 101.21 51.55 101.11 51.45C101.01 51.35 100.88 51.25 100.71 51.16C100.54 51.07 100.36 50.98 100.14 50.88Q99.94 50.78 99.71 50.65C99.55 50.56 99.41 50.45 99.26 50.32Q99.05 50.12 98.92 49.84C98.83 49.66 98.78 49.43 98.78 49.17Q98.78 48.67 99.01 48.31Q99.02 48.3 99.02 48.3C99.17 48.06 99.4 47.87 99.69 47.74C99.98 47.61 100.32 47.55 100.72 47.55C101.02 47.55 101.3 47.58 101.57 47.65C101.84 47.72 102.12 47.82 102.41 47.95L102.02 48.89C101.76 48.79 101.52 48.7 101.32 48.65C101.11 48.59 100.9 48.56 100.68 48.56C100.53 48.56 100.4 48.58 100.29 48.63C100.19 48.68 100.11 48.75 100.05 48.83C100 48.92 99.97 49.02 99.97 49.14C99.97 49.27 100.01 49.38 100.09 49.48C100.17 49.57 100.29 49.66 100.45 49.74C100.61 49.83 100.81 49.93 101.05 50.05C101.34 50.18 101.59 50.33 101.79 50.48C102 50.63 102.16 50.8 102.27 51C102.39 51.21 102.44 51.46 102.44 51.76ZM113.18 48.56Q112.84 48.56 112.57 48.69C112.39 48.78 112.24 48.91 112.12 49.08Q111.94 49.33 111.84 49.69Q111.75 50.05 111.75 50.5C111.75 50.91 111.8 51.25 111.9 51.54C112 51.82 112.16 52.04 112.37 52.19C112.58 52.34 112.85 52.41 113.18 52.41C113.42 52.41 113.65 52.39 113.88 52.33C114.11 52.28 114.37 52.21 114.64 52.11L114.64 53.13C114.39 53.23 114.14 53.31 113.89 53.35C113.65 53.4 113.37 53.42 113.07 53.42C112.48 53.42 112 53.3 111.62 53.06C111.24 52.81 110.96 52.47 110.78 52.03C110.59 51.59 110.5 51.08 110.5 50.49Q110.5 49.85 110.68 49.31Q110.86 48.77 111.19 48.37C111.42 48.11 111.7 47.91 112.03 47.76Q112.53 47.55 113.18 47.55C113.47 47.55 113.75 47.59 114.04 47.66C114.32 47.73 114.59 47.83 114.86 47.95L114.46 48.94C114.25 48.83 114.04 48.75 113.82 48.67C113.6 48.6 113.39 48.56 113.18 48.56ZM122.44 48.56Q122.09 48.56 121.82 48.69C121.64 48.78 121.49 48.91 121.37 49.08Q121.19 49.33 121.1 49.69Q121 50.05 121 50.5C121 50.91 121.05 51.25 121.15 51.54C121.25 51.82 121.41 52.04 121.62 52.19C121.83 52.34 122.1 52.41 122.44 52.41C122.67 52.41 122.9 52.39 123.13 52.33C123.37 52.28 123.62 52.21 123.89 52.11L123.89 53.13C123.64 53.23 123.39 53.31 123.15 53.35C122.9 53.4 122.63 53.42 122.32 53.42C121.74 53.42 121.25 53.3 120.87 53.06C120.49 52.81 120.21 52.47 120.03 52.03C119.85 51.59 119.76 51.08 119.76 50.49Q119.76 49.85 119.93 49.31Q120.11 48.77 120.45 48.37C120.68 48.11 120.96 47.91 121.29 47.76Q121.79 47.55 122.44 47.55C122.72 47.55 123.01 47.59 123.29 47.66C123.58 47.73 123.85 47.83 124.11 47.95L123.72 48.94C123.5 48.83 123.29 48.75 123.07 48.67C122.86 48.6 122.65 48.56 122.44 48.56ZM147.54 53.34L147.12 51.98L145.04 51.98L144.63 53.34L143.32 53.34L145.34 47.61L146.82 47.61L148.84 53.34L147.54 53.34ZM56.69 47.63L58.47 47.63Q59.61 47.63 60.19 47.95Q60.39 48.06 60.51 48.21Q60.78 48.53 60.78 49.08C60.78 49.29 60.75 49.49 60.68 49.66C60.61 49.84 60.51 49.98 60.38 50.09C60.25 50.2 60.09 50.28 59.9 50.31L59.9 50.35C60.09 50.39 60.26 50.46 60.42 50.55C60.57 50.65 60.69 50.78 60.79 50.97Q60.92 51.24 60.92 51.69C60.92 52.03 60.84 52.33 60.67 52.58C60.5 52.82 60.26 53.01 59.95 53.15Q59.48 53.34 58.83 53.34L56.69 53.34L56.69 47.63ZM65.35 53.34L62.07 53.34L62.07 47.63L65.35 47.63L65.35 48.62L63.28 48.62L63.28 49.88L65.21 49.88L65.21 50.87L63.28 50.87L63.28 52.34L65.35 52.34L65.35 53.34ZM73.16 53.34L71.94 53.34L71.94 48.64L70.39 48.64L70.39 47.63L74.71 47.63L74.71 48.64L73.16 48.64L73.16 53.34ZM79.74 53.34L79.74 47.63L80.95 47.63L80.95 52.34L83.27 52.34L83.27 53.34L79.74 53.34ZM96.42 53.34L96.42 47.63L97.63 47.63L97.63 53.34L96.42 53.34ZM105.68 53.34L104.47 53.34L104.47 48.64L102.92 48.64L102.92 47.63L107.23 47.63L107.23 48.64L105.68 48.64L105.68 53.34ZM108.11 53.34L108.11 47.63L109.32 47.63L109.32 53.34L108.11 53.34ZM133.89 53.34L132.52 48.86L132.48 48.86C132.49 48.97 132.5 49.13 132.51 49.34C132.52 49.56 132.53 49.79 132.54 50.03C132.55 50.27 132.56 50.49 132.56 50.69L132.56 53.34L131.48 53.34L131.48 47.63L133.12 47.63L134.48 52L134.5 52L135.93 47.63L137.58 47.63L137.58 53.34L136.45 53.34L136.45 50.64C136.45 50.46 136.46 50.25 136.46 50.02C136.47 49.78 136.48 49.56 136.49 49.35C136.5 49.14 136.51 48.98 136.51 48.87L136.48 48.87L135 53.34L133.89 53.34ZM140.84 47.63C141.58 47.63 142.12 47.79 142.46 48.11C142.8 48.42 142.96 48.86 142.96 49.41C142.96 49.66 142.93 49.9 142.85 50.13C142.78 50.36 142.65 50.56 142.48 50.74C142.31 50.91 142.08 51.05 141.8 51.16C141.52 51.26 141.17 51.31 140.75 51.31L140.23 51.31L140.23 53.34L139.02 53.34L139.02 47.63L140.84 47.63ZM154.63 53.34L153.09 53.34L150.61 49.02L150.57 49.02C150.58 49.2 150.59 49.38 150.6 49.57Q150.61 49.84 150.62 50.11Q150.63 50.38 150.64 50.65L150.64 53.34L149.56 53.34L149.56 47.63L151.09 47.63L153.57 51.91L153.6 51.91C153.59 51.73 153.59 51.56 153.58 51.38C153.57 51.21 153.56 51.03 153.56 50.86C153.55 50.68 153.54 50.51 153.54 50.33L153.54 47.63L154.63 47.63L154.63 53.34ZM157.84 49.98L159.03 47.63L160.34 47.63L158.44 51.12L158.44 53.34L157.24 53.34L157.24 51.16L155.35 47.63L156.66 47.63L157.84 49.98ZM146.84 50.97L146.42 49.64C146.39 49.55 146.36 49.44 146.32 49.3C146.28 49.16 146.23 49.02 146.19 48.87C146.15 48.73 146.11 48.6 146.09 48.49C146.06 48.6 146.02 48.73 145.98 48.89C145.93 49.05 145.89 49.2 145.85 49.34C145.81 49.48 145.78 49.58 145.76 49.64L145.35 50.97L146.84 50.97ZM85.28 50.48C85.28 50.88 85.33 51.22 85.43 51.51C85.53 51.8 85.68 52.02 85.9 52.17C86.11 52.33 86.39 52.4 86.73 52.4C87.07 52.4 87.35 52.33 87.56 52.17C87.78 52.02 87.93 51.8 88.03 51.51Q88.17 51.08 88.17 50.48C88.17 49.88 88.06 49.41 87.84 49.07C87.62 48.72 87.25 48.55 86.73 48.55C86.39 48.55 86.11 48.63 85.9 48.78C85.68 48.94 85.53 49.16 85.43 49.45C85.33 49.73 85.28 50.08 85.28 50.48ZM126.12 50.48C126.12 50.88 126.17 51.22 126.28 51.51C126.38 51.8 126.53 52.02 126.75 52.17C126.96 52.33 127.24 52.4 127.57 52.4C127.92 52.4 128.2 52.33 128.41 52.17C128.62 52.02 128.78 51.8 128.88 51.51Q129.02 51.08 129.02 50.48C129.02 49.88 128.91 49.41 128.69 49.07C128.46 48.72 128.09 48.55 127.58 48.55C127.24 48.55 126.96 48.63 126.75 48.78C126.53 48.94 126.38 49.16 126.28 49.45C126.17 49.73 126.12 50.08 126.12 50.48ZM57.9 49.89L58.6 49.89C58.96 49.89 59.2 49.84 59.34 49.73C59.47 49.62 59.54 49.45 59.54 49.24C59.54 49.02 59.46 48.86 59.3 48.77Q59.06 48.62 58.54 48.62L57.9 48.62L57.9 49.89ZM140.78 48.62L140.23 48.62L140.23 50.32L140.63 50.32C140.86 50.32 141.05 50.29 141.22 50.23Q141.42 50.15 141.56 50.01Q141.58 49.98 141.61 49.95C141.7 49.82 141.74 49.66 141.74 49.46Q141.74 49.08 141.55 48.87Q141.53 48.85 141.51 48.83Q141.27 48.62 140.78 48.62ZM57.9 50.85L57.9 52.34L58.69 52.34Q59.24 52.34 59.45 52.13Q59.5 52.08 59.54 52.03Q59.67 51.84 59.67 51.57C59.67 51.42 59.64 51.3 59.57 51.19C59.51 51.09 59.41 51 59.26 50.94Q59.04 50.85 58.65 50.85L57.9 50.85Z" fill="#423A3B" fill-opacity="1.000000" fill-rule="evenodd"/>
	<path d="M0.47 15.46L13.56 23.28C13.59 23.31 13.63 23.34 13.65 23.37L15.43 25.9C15.47 25.95 15.49 26.01 15.49 26.08L15.49 33.59C15.49 33.72 15.41 33.84 15.3 33.89L13.6 34.56C13.39 34.65 13.34 34.93 13.5 35.08L15.39 36.84C15.46 36.9 15.49 36.99 15.49 37.07L15.49 44.14C15.49 44.24 15.44 44.33 15.36 44.39L11.58 47.15C11.48 47.22 11.35 47.23 11.25 47.17L0.16 41.1C0.06 41.04 0 40.94 0 40.82L0 22.15C0 21.91 0.26 21.76 0.47 21.89L4.23 24.17C4.32 24.22 4.38 24.32 4.38 24.43L4.38 27.99C4.38 28.1 4.44 28.21 4.54 28.26L10.96 31.83C11.17 31.94 11.42 31.79 11.42 31.55L11.42 26.16C11.42 26.05 11.36 25.95 11.27 25.89L0.15 19.5C0.05 19.44 0 19.34 0 19.22L0 15.73C0 15.49 0.26 15.34 0.47 15.46ZM4.22 37.41L4.22 32.87L11.27 37.09L11.27 41.48L4.22 37.41Z" fill="#218C41" fill-opacity="1.000000" fill-rule="evenodd"/>
	<path d="M23.79 0.09L0.93 13.35C0.72 13.47 0.72 13.76 0.92 13.89L23.79 27.45C23.88 27.51 24.01 27.51 24.1 27.45L47.27 13.89C47.48 13.77 47.48 13.46 47.27 13.34L24.1 0.08C24 0.03 23.89 0.03 23.79 0.09ZM23.45 5.29L10.41 12.76C9.74 13.14 9.73 14.1 10.39 14.49L23.43 22.23C23.75 22.42 24.14 22.42 24.46 22.23L37.36 14.49C38.01 14.09 38.01 13.15 37.35 12.76L24.44 5.29C24.13 5.11 23.75 5.11 23.45 5.29ZM28.8 26.63L28.8 31.39C28.8 31.63 29.06 31.78 29.27 31.66L47.58 21.06C47.68 21.01 47.74 20.9 47.74 20.79L47.74 15.88C47.74 15.64 47.48 15.49 47.27 15.61L28.95 26.36C28.86 26.41 28.8 26.52 28.8 26.63ZM16.74 25.75L16.74 50.69C16.74 50.8 16.8 50.9 16.89 50.96L23.48 55C23.57 55.06 23.69 55.06 23.79 55.01L27.54 52.99C27.64 52.94 27.7 52.83 27.7 52.72L27.7 48.85C27.7 48.63 27.47 48.47 27.26 48.57L23.8 50.16C23.7 50.21 23.57 50.2 23.48 50.13L21.25 48.46C21.17 48.4 21.13 48.31 21.13 48.21L21.13 28.03C21.13 27.93 21.07 27.82 20.98 27.77L17.22 25.49C17.01 25.36 16.74 25.51 16.74 25.75ZM28.8 51.58L28.8 33.83C28.8 33.72 28.86 33.62 28.95 33.56L32.87 31.27C33.07 31.14 33.34 31.29 33.34 31.54L33.34 43.44C33.34 43.68 33.6 43.84 33.8 43.72L47.27 36.11C47.48 35.99 47.74 36.14 47.74 36.38L47.74 41.14C47.74 41.25 47.68 41.35 47.58 41.41L29.27 51.85C29.06 51.97 28.8 51.82 28.8 51.58Z" fill="#218C41" fill-opacity="1.000000" fill-rule="evenodd"/>
</svg>
