<svg width="25.000000" height="18.750000" viewBox="0 0 25 18.75" fill="none" xmlns="http://www.w3.org/2000/svg" xmlns:xlink="http://www.w3.org/1999/xlink">
	<desc>
			Created with Pixso.
	</desc>
	<defs/>
	<path id="path" d="M2.34 0C1.04 0 0 1.04 0 2.34C0 3.08 0.34 3.77 0.93 4.21L11.56 12.18C12.11 12.6 12.88 12.6 13.43 12.18L24.06 4.21C24.65 3.77 25 3.08 25 2.34C25 1.04 23.95 0 22.65 0L2.34 0ZM0 5.46L0 15.62C0 17.34 1.4 18.75 3.12 18.75L21.87 18.75C23.59 18.75 25 17.34 25 15.62L25 5.46L14.37 13.43C13.26 14.27 11.73 14.27 10.62 13.43L0 5.46Z" fill="#FFFFFF" fill-opacity="1.000000" fill-rule="nonzero"/>
</svg>
