<svg width="748.000000" height="388.902466" viewBox="0 0 748 388.902" fill="none" xmlns="http://www.w3.org/2000/svg" xmlns:xlink="http://www.w3.org/1999/xlink">
	<desc>
			Created with Pixso.
	</desc>
	<defs/>
	<path id="Vector" d="M223.26 0.88C220.65 1.56 217.47 2.78 216.21 3.6C214.95 4.42 210.1 5.59 205.45 6.19C196.04 7.42 192.28 9.56 194.59 12.4C195.26 13.21 196.75 13.88 197.9 13.88C199.05 13.88 201.39 14.59 203.09 15.46C205.63 16.75 206.74 16.83 209.18 15.94C210.82 15.33 212.72 14.84 213.4 14.84C214.09 14.84 215.13 14.16 215.73 13.33C216.38 12.42 221.59 10.74 228.99 9.06C235.7 7.54 242.15 6.05 243.34 5.76C245.05 5.33 245.45 5.57 245.22 6.92C244.73 9.86 242.31 10.95 236.19 10.98C229.02 11.02 229.27 12.27 236.75 13.77C241.11 14.64 242.91 15.59 245.58 18.44C250.46 23.65 252.67 31.95 249.92 34.74C249.3 35.37 247.14 35.89 245.12 35.89C241.99 35.89 241.55 36.13 242.13 37.56C242.5 38.48 243.19 40.89 243.67 42.92C244.86 48.07 246.83 51.64 249.75 53.98C253.44 56.93 255.41 56.47 258.51 51.91C263.7 44.3 265.12 42.8 267.73 42.16C275.55 40.24 277.38 39.52 277.38 38.39C277.38 36.67 290.7 33.02 296.99 33.02C300.93 33.02 303.71 30.53 303.72 26.98C303.75 21.35 304.64 19.62 307.52 19.62C310.75 19.62 315.17 18 316.13 16.45C316.53 15.83 316.85 14.44 316.86 13.36C316.87 12.11 318.24 10.54 320.61 9.05C322.66 7.76 324.35 6.49 324.35 6.23C324.4 4.26 319.7 2.11 315.93 2.38C303.2 3.29 283.18 3.32 279.52 2.44C277.05 1.84 274.61 1.36 274.09 1.38C273.57 1.39 269.13 1.68 264.22 2.01C259.3 2.34 250.84 2.13 245.41 1.54C239.98 0.95 233.85 0.29 231.78 0.06C229.71 -0.16 225.88 0.21 223.26 0.88ZM522.56 17.52C520.6 19.92 516.67 21.26 507.9 22.5C502.41 23.28 498.94 24.23 498.64 25.02C498.37 25.72 498.62 27.66 499.19 29.32C499.95 31.54 499.95 32.69 499.17 33.64C497.49 35.7 496.65 35.21 493.59 30.39C490.74 25.88 490.55 27.71 493.3 33.21C495.36 37.34 494.98 38.93 492 38.58C489.9 38.33 489.37 37.74 489.14 35.41C488.5 28.7 484.78 24.41 479.59 24.41C476.69 24.41 477.14 28.18 480.48 31.91C482.03 33.63 483.3 35.25 483.3 35.49C483.3 35.73 482.19 36.37 480.82 36.89C477.93 38.01 469.25 35.86 467.37 33.56C466.15 32.07 464.04 32.48 461.49 34.7C460.42 35.63 457.81 36.09 453.69 36.07C446.23 36.02 436.6 39.67 430.29 44.93C428.05 46.8 425.91 48.32 425.54 48.32C425.16 48.32 422.96 46.74 420.64 44.81C415.63 40.63 416.47 39.5 424.27 39.92C428.58 40.16 429.24 39.96 429.24 38.41C429.24 33.86 397.22 27.87 390.86 31.23C387.71 32.89 376.01 41.61 372.59 44.85C370.9 46.44 369.53 48.29 369.53 48.96C369.53 50.45 366.56 52.15 363.95 52.15C362.27 52.15 362.01 52.74 362.01 56.46C362.01 60.33 362.18 60.67 363.65 59.74C365.8 58.39 374 62.88 375.18 66.06C376.3 69.04 379.42 69.89 382.27 67.99C385.36 65.93 389.32 59.58 388.24 58.42C387.3 57.41 387.15 53.65 387.93 50.71C388.46 48.71 394.72 44.5 397.16 44.5C399.59 44.5 399.81 46.32 397.73 49.29C394.42 54.02 395.41 55.45 402.21 55.78C406.63 56 408.08 56.42 408.08 57.48C408.08 59.63 404.03 61.18 401.71 59.92C399.9 58.93 399.83 59.09 400.32 62.84L400.85 66.8L397.88 66.19C395.29 65.67 394.92 65.85 394.92 67.64C394.92 70.92 392.3 73.19 389.25 72.57C387.61 72.24 385.58 72.66 383.86 73.69C381.25 75.26 380.97 75.26 378.62 73.69C376.59 72.34 375.61 72.23 373.17 73.1C371.18 73.8 369.82 73.84 369.06 73.2C368.28 72.54 367.44 72.8 366.32 74.06C365.43 75.06 363.35 76.14 361.7 76.45C359.91 76.79 358.31 77.85 357.76 79.07C357.25 80.19 356.41 81.07 355.89 81.02C355.38 80.98 353.6 82.27 351.95 83.9C349.63 86.19 347.87 86.97 344.19 87.33C338.93 87.84 338.42 88.5 341.56 90.73C343.66 92.22 343.65 92.23 340.43 92.28L337.19 92.33L340.2 95.48C344.06 99.54 344.22 103.24 340.62 105.09C338.46 106.19 337.56 106.2 335.21 105.15C331.87 103.66 328.23 103.49 326.3 104.73C324.68 105.77 323.36 117.49 324.5 120.71C325.51 123.58 334.52 125.58 338.61 123.85C343.13 121.95 346.02 119.15 346.02 116.69C346.02 115.44 346.55 113.99 347.2 113.47C347.84 112.96 350.35 110.77 352.77 108.6C356.71 105.06 357.51 104.72 360.53 105.3C363.52 105.87 363.89 105.72 363.89 103.92C363.89 100.93 367.94 101.22 369.95 104.35C370.82 105.7 373.3 107.59 375.47 108.54C377.63 109.5 380.6 111.58 382.07 113.17C384.29 115.57 384.57 116.38 383.72 118C383.16 119.07 381.74 120.11 380.58 120.32C378.6 120.67 378.58 120.75 380.26 121.5C381.65 122.13 382.55 121.68 384.25 119.52C385.46 117.98 386.45 116.19 386.45 115.53C386.45 114.87 387.37 114.33 388.48 114.33C390.48 114.33 390.48 114.31 388.72 112.32C387.73 111.22 385.66 109.66 384.11 108.87C380.08 106.81 375.17 101.82 375.17 99.8C375.17 98.85 375.51 98.07 375.93 98.07C377.12 98.07 384.91 103.32 386.33 105.08C387.04 105.96 388.4 106.68 389.36 106.68C391.14 106.68 393.04 109.31 393.04 111.77C393.04 114.22 399.07 122.9 400.79 122.92C401.7 122.93 402.44 122.33 402.44 121.59C402.44 120.84 402.93 120.07 403.52 119.87C404.26 119.61 404.07 118.67 402.93 116.89C401 113.89 401.38 113.15 405.02 112.86C406.44 112.74 408.59 112.33 409.78 111.93C411.67 111.31 411.93 111.51 411.75 113.49C410.94 122.66 413.79 124.85 426.55 124.85C432.99 124.86 435.27 125.19 435.65 126.18C436.83 129.31 432.79 139.75 429.97 140.86C429.13 141.18 423.1 140.98 416.57 140.42C407.63 139.64 403.82 138.89 401.18 137.38C397.02 135 396.8 134.97 396.8 136.77C396.8 137.53 396.31 139.25 395.72 140.57C394.83 142.55 394.11 142.92 391.71 142.6C390.1 142.39 386.88 141.12 384.56 139.77C382.24 138.42 379.17 137.31 377.73 137.31C376.29 137.3 374.87 136.66 374.58 135.89C374.29 135.13 373.21 134.22 372.17 133.89C370.63 133.39 370.36 132.64 370.69 129.78C370.91 127.86 371.27 125.65 371.49 124.86C371.94 123.22 371.81 123.22 359.66 124.86C355 125.49 349.85 126.57 348.22 127.26C346.58 127.95 343.48 128.35 341.32 128.13C339.16 127.92 336.56 128.2 335.54 128.76C334.18 129.5 333.3 129.45 332.28 128.59C331.12 127.61 330.4 128 328.09 130.86C326.55 132.76 324.45 134.58 323.42 134.91C321.31 135.6 318.37 140.68 319.26 142.13C319.57 142.65 316.72 146.19 312.92 149.99C303.65 159.25 300.94 165.04 301.06 175.26C301.12 180.09 300.64 183.9 299.71 186.04C298.67 188.41 298.51 190.02 299.14 191.71C299.63 193.01 299.82 194.62 299.56 195.3C299.3 195.98 300.35 197.45 301.89 198.57C303.43 199.68 305.56 202.32 306.62 204.44C308.99 209.17 315.42 216.38 318.89 218.21C321.86 219.77 326.26 219.95 330.44 218.7C332.03 218.23 337.14 216.92 341.79 215.8C351.4 213.48 355.51 213.85 358.17 217.3C359.23 218.67 360.92 219.57 362.42 219.57C366.25 219.57 369.53 223.5 369.53 228.07C369.53 230.17 369.1 233.03 368.58 234.43C367.75 236.65 368.01 237.43 370.57 240.4C374.34 244.77 378.93 255.16 379.53 260.7C380.37 268.48 380.05 270.98 377.59 275.67C374.57 281.44 374.54 284.62 377.46 289.71C380.77 295.5 383.36 303.42 384.02 309.78C384.45 313.92 385.42 316.53 387.85 320.12C389.63 322.76 391.37 326.51 391.7 328.45C392.03 330.39 392.91 332.96 393.65 334.16C394.87 336.13 395.46 336.28 399.89 335.7C402.59 335.35 406.8 334.26 409.25 333.29C415.32 330.9 425.86 320.57 429.09 313.86C430.58 310.76 432.74 307.95 434.41 306.95C437.41 305.15 438.05 302.31 436.23 298.86C434.57 295.7 438.46 288.96 444.85 283.91C449.62 280.14 450.39 279.07 450.92 275.46C451.3 272.9 450.93 268.49 449.96 263.87C446.72 248.51 446.59 249.38 453.33 240.5C456.63 236.16 461.47 230.21 464.09 227.28C471.4 219.1 477.24 210.01 478.5 204.86C479.12 202.3 479.46 200.03 479.25 199.81C479.04 199.6 477.82 199.83 476.55 200.32C475.27 200.81 470.49 201.35 465.93 201.51L457.63 201.8L456.46 197.74C455.28 193.67 452.04 188.64 447.75 184.17C444.32 180.61 441.67 175.96 438.22 167.43C436.51 163.22 433.64 156.76 431.84 153.08C430.04 149.39 429.12 146.92 429.8 147.58C430.47 148.24 431.95 148.77 433.07 148.77C435.62 148.77 441.38 156.29 445.55 165.04C447.18 168.46 450.4 173.84 452.7 177C455.47 180.79 457.24 184.44 457.94 187.76C459.75 196.43 462.07 196.6 476.71 189.17C486.67 184.12 488.01 183.11 493.87 176.16C497.37 172.02 500.21 168.15 500.19 167.55C500.17 166.96 498.8 165.61 497.14 164.56C495.48 163.51 493.22 160.75 492.13 158.44L490.15 154.23L487.95 157.26C486.64 159.05 484.28 160.74 482.16 161.39C478.95 162.36 478.35 162.26 476.42 160.41C474.12 158.22 470.13 147.65 470.16 143.87L470.18 141.6L471.81 143.61C475.17 147.78 481.74 151.36 486.93 151.86C489.7 152.12 492.24 152.75 492.57 153.24C494.54 156.18 498.12 157.38 504.91 157.39C515.23 157.4 518.17 158.54 524.72 165.08C530.12 170.47 533.24 171.98 534.55 169.82C534.87 169.29 535.46 168.86 535.87 168.86C537.23 168.86 538.79 173.74 538.2 176.16C537.79 177.83 538.68 181.12 541.11 186.87C545.19 196.52 545.57 197.48 547.69 203.54C549.51 208.74 551.01 209.19 555.14 205.75C557.82 203.52 557.86 203.34 557.26 196.72C556.7 190.61 556.88 189.46 559.19 184.68C560.59 181.77 562.56 179.13 563.56 178.8C564.57 178.48 568.1 175.64 571.42 172.51C577.28 166.95 577.55 166.82 581.38 167.46C586.01 168.23 588.39 170.1 590.16 174.34C590.86 176.03 592.71 178.37 594.26 179.54C595.81 180.71 597.09 182.55 597.09 183.63C597.1 184.72 597.49 186.22 597.96 186.98C598.67 188.11 599.07 188.14 600.29 187.11C601.09 186.43 602.32 186.09 603 186.36C604.79 187.05 606.48 193.57 606.48 199.75C606.48 202.67 606.74 205.74 607.05 206.57C608.16 209.52 609.3 206.93 609.3 201.45C609.3 197.43 609.74 195.52 610.87 194.57C611.99 193.63 612.53 193.57 612.8 194.37C613.57 196.71 623.18 207.13 624.56 207.13C626.51 207.13 634.69 197.87 634.69 195.66C634.69 192.31 629.3 183.51 625.18 180.14C621.18 176.87 621.14 176.27 624.63 171.02C628.25 165.59 632.82 167.69 633.73 175.2L634.29 179.87L637.32 173.91C640.48 167.67 642.34 165.97 647.93 164.16C652.25 162.77 655.87 158.91 657.64 153.8C658.88 150.22 658.88 149.3 657.6 145.47C656.81 143.1 654.29 139.11 652.01 136.6C646.99 131.07 646.35 129.35 648.26 126.57C649.07 125.39 649.74 124.1 649.74 123.69C649.74 123.28 646.99 122.94 643.62 122.94C639.91 122.94 637.51 122.54 637.51 121.92C637.51 121.36 638.8 119 640.37 116.67C644.42 110.68 647.83 109.15 647.87 113.3C647.88 114.13 648.27 115.44 648.75 116.2C649.49 117.39 649.96 117.4 651.99 116.3C653.93 115.25 654.64 115.23 655.82 116.22C656.61 116.89 657.26 118.17 657.26 119.06C657.26 119.96 658.69 121.37 660.49 122.24C663.02 123.47 663.78 124.46 664.01 126.87C664.18 128.55 665.07 130.4 666.01 130.98C667.42 131.85 668.18 131.5 670.48 128.91C672 127.19 673.24 125.36 673.24 124.85C673.24 124.34 670.95 122.37 668.14 120.47C662.13 116.41 661.57 115.33 663.32 111.21C664.05 109.51 664.87 107.36 665.15 106.44C665.51 105.26 666.64 104.77 668.96 104.77C671.83 104.77 672.5 104.3 674.06 101.18C675.08 99.16 676.01 94.98 676.2 91.62C676.49 86.42 676.23 85.27 674.18 82.61C668.55 75.32 668.19 75.11 661.13 75.11C652.89 75.11 651.14 73.75 652.03 68.01C652.6 64.3 653.7 62.87 658.77 59.26C660.43 58.08 661.86 58.02 667.7 58.93C671.52 59.53 675.55 60.37 676.65 60.79C679.13 61.75 680.76 60.27 680.76 57.06C680.76 55.76 681.45 53.93 682.28 52.99C683.67 51.42 683.97 51.41 686.06 52.8C688.14 54.19 688.48 54.18 690.03 52.75C692.62 50.37 694.58 50.88 695.72 54.22C696.56 56.66 696.48 57.56 695.34 58.84C693.65 60.74 693.53 66.37 695.13 68.5C695.76 69.33 697.23 70.53 698.4 71.16C699.56 71.79 700.51 73.06 700.51 73.98C700.51 75.56 708.67 83.39 709.46 82.58C709.67 82.37 709.96 79.19 710.1 75.5C710.41 67.95 708.73 64 705 63.46C703.43 63.23 702.86 62.52 702.86 60.78C702.86 58.98 703.82 57.87 706.86 56.16L710.85 53.92L710.85 56.58L710.85 59.23L714.42 55.69C716.38 53.74 718.89 52.15 720.01 52.15C724.01 52.15 723 50.31 717.33 47.23C714.15 45.51 712.14 43.92 712.85 43.69C713.56 43.47 714.86 42.66 715.72 41.89C717.11 40.67 717.92 40.67 722.31 41.91C725.06 42.69 728.57 43.63 730.1 43.99L732.9 44.64L731.04 42.52C728.28 39.37 723.8 37.8 717.58 37.8C714.53 37.8 710.6 37.21 708.85 36.49C707.11 35.78 700.91 34.42 695.07 33.49C685.04 31.88 684.39 31.88 683.28 33.43C682.17 34.97 681.59 34.98 674.27 33.57C669.97 32.74 664.14 32.06 661.32 32.06C658.5 32.06 655.27 31.52 654.14 30.86C652.95 30.17 646.93 29.44 639.86 29.13C630.63 28.72 626.45 28.1 622.76 26.6C618.89 25.02 617.79 24.88 617.41 25.89C617.14 26.59 615.86 27.88 614.55 28.75C612.46 30.14 611.06 30.2 602.7 29.28C597.49 28.7 591.99 27.59 590.49 26.8C587.24 25.09 579.86 24.94 574.24 26.47C570.84 27.39 569.31 27.29 564.83 25.86C561.32 24.74 558.09 24.34 555.45 24.71C549.69 25.51 548.5 24.41 551.53 21.09C554.45 17.88 553.52 16.8 547.71 16.65C528.32 16.16 523.54 16.32 522.56 17.52ZM121.39 22.72C119.78 23.75 118.47 24.93 118.47 25.35C118.47 26.23 121.82 27.24 124.82 27.26C126.42 27.27 126.93 27.83 126.93 29.55C126.93 33.37 128.71 33.97 138.76 33.55C151.85 33.01 153.44 32.41 153.71 27.87C153.91 24.4 153.81 24.27 151.48 24.86C150.13 25.21 146.8 25.7 144.06 25.96C139.63 26.38 138.72 26.13 135.6 23.63C131.36 20.22 125.81 19.87 121.39 22.72ZM186.45 24.55C184.57 26.46 184.53 26.76 185.9 28.88C187.28 31.03 187.47 31.07 189.1 29.57C190.65 28.14 191.4 28.11 196.61 29.29C203.05 30.74 205.07 32.77 205.31 38.02C205.43 40.74 204.99 41.37 201.92 42.9C199.98 43.86 198.4 45.28 198.4 46.05C198.4 47.67 207.21 52.13 210.43 52.14C212.39 52.15 212.53 51.84 211.97 48.8C211.34 45.39 211.91 44.8 214.34 46.36C216.6 47.81 217.28 46.47 215.79 43.53C213.96 39.94 213.97 39.9 216.73 40.44C218.74 40.83 219.08 40.54 219.08 38.46C219.08 37.13 218.06 34.79 216.81 33.28C215.55 31.76 214.6 29.71 214.69 28.72C214.81 27.4 214.02 26.74 211.71 26.25C209.98 25.87 207.16 24.8 205.44 23.86C202.74 22.38 201.57 22.28 196.83 23.18C193.57 23.8 190.98 23.87 190.45 23.35C189.17 22.12 188.71 22.25 186.45 24.55ZM168.66 28.22C167.57 28.67 166.42 30.05 166.11 31.29C165.81 32.53 164.26 34.81 162.67 36.36L159.78 39.18L155.22 37.53C148.63 35.15 139.17 35.33 135.97 37.89C134.21 39.3 133.12 39.61 132.31 38.93C131.68 38.4 129.55 37.66 127.56 37.29C125.58 36.91 123.74 36.01 123.47 35.29C123.12 34.37 121.24 33.97 117.25 33.97C114.11 33.97 109.12 33.47 106.17 32.85C101.62 31.89 99.61 31.98 92.95 33.45C88.63 34.4 82.98 35.35 80.39 35.56C75.92 35.92 75.57 35.78 73.34 32.59C71.03 29.31 70.85 29.24 64.4 29.24C60.78 29.24 56.13 29.63 54.06 30.12C51.99 30.6 47.76 31.07 44.66 31.16C41.56 31.25 37.11 31.92 34.79 32.64C32.46 33.36 29.07 34.18 27.26 34.45C22.39 35.2 21.22 36.2 22.45 38.53C24.04 41.58 21.98 42.67 17.14 41.35C13.68 40.41 12.93 40.5 11.51 41.96C9.95 43.57 9.96 43.72 11.7 45.04C12.92 45.96 13.84 46.1 14.47 45.46C14.99 44.93 16.28 44.51 17.34 44.53C20.72 44.58 14.56 49.27 10.99 49.35C4.02 49.52 0 52.01 0 56.14C0 58.39 0.55 59.14 2.76 59.93C4.56 60.56 5.34 61.38 5.01 62.26C4.25 64.27 9.56 63.07 16.39 59.68C20.17 57.8 22.17 57.25 22.61 57.97C23.06 58.71 24.11 58.57 26.15 57.5C27.75 56.66 30.24 55.98 31.68 55.98C35.74 55.98 48.13 58.57 48.78 59.55C49.1 60.03 50.11 60.7 51.02 61.04C53.69 62.05 54.76 66.28 53.78 72.05C53.16 75.68 53.27 78.87 54.16 83.07C55.33 88.64 55.29 89.06 53.56 90.29C52.54 91.02 51.71 92.16 51.71 92.83C51.71 93.94 47.31 100.45 40.28 109.73C38.1 112.61 37.61 114.22 37.61 118.44C37.61 125.57 39.11 129.52 43.37 133.6C46.57 136.65 47.01 137.6 47.01 141.45C47.01 146.16 50.13 156 52.36 158.34C53.56 159.6 53.65 159.31 53.11 155.95C52.77 153.84 51.62 149.9 50.55 147.19C48.69 142.43 48.75 139.21 50.72 139.21C51.9 139.21 54.52 144.25 54.55 146.57C54.57 147.52 55.73 150.33 57.14 152.81C66.5 169.31 66.72 169.79 66.16 172.63C65.63 175.29 66.02 175.73 72.8 180.24C80.03 185.04 86.07 186.92 90.46 185.75C91.82 185.39 93.53 185.97 95.39 187.41C99.6 190.67 103.97 192.78 106.5 192.78C109.23 192.78 113.3 197.06 114.19 200.87C114.87 203.79 116.61 205.41 122.2 208.31C127.37 211 127.69 210.3 123.29 205.95L119.19 201.91L119.81 194.11C120.52 185.25 120.43 185.13 113.12 185.13C110.11 185.13 109 184.78 109.31 183.93C113.7 172.07 114.06 170.59 112.75 169.75C109.75 167.82 107.26 168.79 105.32 172.66C102.2 178.88 96.92 180.23 91.14 176.26C86.53 173.1 86.16 169.66 89.32 159.5C91.76 151.69 92.21 150.97 96.4 148.12C101.01 144.97 107.91 143.09 108.95 144.69C110.32 146.79 113.66 146.63 115.75 144.36C118.36 141.53 122.52 141.39 126.7 143.98C128.69 145.22 129.76 146.63 129.76 148.04C129.77 151.78 131.67 157.38 132.93 157.38C135.43 157.38 136.42 153.35 135.53 146.86C134.48 139.35 134.56 139.24 145.49 131.91C149.75 129.06 153.85 125.55 154.6 124.11C157.07 119.36 166.83 110.51 169.6 110.51C171.39 110.51 172.36 109.85 172.97 108.21C174.03 105.38 178.74 101.75 184.08 99.65C188.3 97.99 190.21 97.61 188.36 98.81C186.84 99.79 185.69 104.77 186.98 104.77C187.53 104.77 189.43 103.48 191.2 101.9C192.97 100.32 195.43 99.03 196.67 99.03C199.31 99.03 203.36 96.4 202.61 95.17C202.31 94.67 201.09 94.7 199.71 95.24C196.69 96.41 194.54 96.38 192.75 95.17C191.55 94.34 191.65 93.94 193.46 92.4C194.62 91.4 195.58 90.29 195.58 89.93C195.58 89.57 193.05 89.43 189.96 89.61C186.71 89.8 184.27 89.54 184.17 88.98C183.81 87.16 192.33 84.9 201.69 84.34C206.86 84.04 211.21 83.77 211.35 83.75C211.49 83.73 213.51 81.93 215.83 79.75C219.79 76.04 219.96 75.67 218.54 74.08C217.71 73.14 216.54 72.55 215.94 72.78C215.34 73 213.91 71.7 212.75 69.88C211.04 67.19 210.76 65.75 211.23 62.23C211.93 57.08 210.76 56.65 205.09 59.97C200.74 62.52 198.4 61.85 198.4 58.04C198.4 54.65 197.29 53.7 191.81 52.33C187.66 51.29 187.52 51.34 184.14 54.69C182.25 56.57 180.26 57.83 179.72 57.49C178.59 56.78 177.61 61.63 177.95 66.32C178.17 69.32 177.93 69.58 173.56 71.14C168.95 72.78 168.47 73.27 166.55 78.22C165.41 81.15 162.69 81.7 160.47 79.43C159.07 78.01 159.3 74.73 160.97 72.56C161.91 71.34 160.89 70.9 154.67 69.87C150.08 69.1 143.9 65.16 143.75 62.9C143.52 59.48 144.05 58.3 146.97 55.76C150.25 52.91 162.37 47.37 165.32 47.37C167.27 47.37 168.31 45.63 168.31 42.39C168.31 40.59 168.46 40.55 170.46 41.89C172.34 43.14 172.86 43.15 174.46 41.96C175.47 41.2 178.52 39.93 181.23 39.13C183.96 38.32 186.78 36.76 187.56 35.63C189.56 32.72 187.73 32 183.53 34.04C177.35 37.03 175.83 37.22 175.83 34.99C175.83 33.87 175.22 33.02 174.42 33.02C173.48 33.02 173.01 32.06 173.01 30.15C173.01 27.16 172.16 26.78 168.66 28.22ZM147.21 198.33C146.85 199.49 146.14 200.43 145.64 200.43C145.13 200.43 142.63 202.42 140.07 204.86C136.13 208.61 135.51 209.67 136.01 211.79C136.33 213.18 136.98 214.8 137.45 215.41C138.36 216.6 134.82 223.91 129.01 232.83C126.21 237.13 125.85 238.25 126.77 239.75C128.27 242.2 128.16 244.13 126.46 244.79C124.16 245.69 124.85 248.79 128.29 252.98C130.07 255.15 133.28 260.68 135.42 265.27C138.95 272.83 140.02 274.19 146.63 279.6C150.65 282.89 154.44 285.58 155.05 285.58C155.67 285.58 157.21 286.71 158.47 288.1C160.6 290.44 160.73 291.12 160.17 297.19C159.84 300.82 160.32 314.34 161.24 327.43C162.88 350.67 162.96 351.18 165.61 355.09C167.09 357.28 168.31 359.44 168.31 359.88C168.32 360.32 168.9 361.81 169.61 363.2C170.72 365.35 170.71 366.14 169.55 368.57C168.28 371.24 168.37 371.71 171.16 376.57C175.95 384.88 180.52 388.9 185.2 388.9C186.82 388.9 187.05 388.49 186.54 386.45C186.17 384.95 186.58 382.56 187.58 380.29C189.58 375.78 188.9 371.68 186.15 371.68C183.75 371.68 183.8 369.77 186.3 365.45L188.31 361.98L186.26 359.16C183.77 355.73 184.24 354.64 187.95 355.19C190.6 355.59 190.76 355.42 191.05 351.93C191.33 348.43 191.49 348.25 194.28 348.52C196.6 348.75 197.73 348.18 199.69 345.82C202.6 342.29 202.82 340.45 200.4 339.67C198.42 339.03 195.04 335.55 195.72 334.86C195.97 334.61 197.44 334.89 199 335.49C200.55 336.08 202.85 336.28 204.11 335.92C206.4 335.26 212.5 327.69 212.5 325.5C212.5 324.85 213.75 321.65 215.27 318.37C217.32 313.97 217.9 311.58 217.51 309.15L216.99 305.87L222.5 304.31C235.2 300.73 236.02 299.59 238.92 281.45C240.95 268.82 242.08 265.46 245.83 260.93C247.26 259.21 248.63 256.18 248.9 254.15C249.37 250.57 249.25 250.39 244.34 247.26C238.04 243.23 233.99 241.73 228.12 241.26C224.87 240.99 222.55 240.09 220.2 238.19C217.33 235.85 216.03 235.48 210.52 235.42C204.22 235.35 204.18 235.33 205.86 233.44C208.46 230.51 208.63 228.96 206.75 225.15C205.03 221.67 200.08 217.22 199.07 218.25C197.98 219.35 194.18 217.3 190.01 213.36C187.64 211.13 184.12 208.78 182.19 208.15C180.26 207.51 177.79 205.84 176.7 204.43C174.93 202.14 174.19 201.9 169.82 202.18C166.01 202.43 163.95 201.97 160.55 200.13L156.17 197.76L154.89 201.67C153.48 205.98 150.7 208.1 151.69 204.12C152.08 202.51 151.59 200.96 150.06 199.02C147.9 196.26 147.86 196.25 147.21 198.33ZM653.62 217.24C652.57 218.59 650.32 220.09 648.61 220.58C646.17 221.28 645.11 222.38 643.65 225.78C642.27 228.98 641.27 230.09 639.75 230.09C637.14 230.09 636.45 231.99 637.59 236C639.16 241.54 640.27 242.29 647.37 242.67C653.34 242.98 653.96 242.83 654.95 240.86C655.53 239.68 656.72 237.92 657.58 236.96C658.43 235.99 659.14 234.52 659.14 233.68C659.14 232.85 659.6 232.01 660.15 231.82C660.86 231.58 660.81 230.68 660 228.87C659.07 226.78 659.08 225.51 660.08 222.44C661.19 219.02 661.14 218.42 659.61 216.7C657.35 214.15 655.9 214.28 653.62 217.24ZM600.84 218.52C600.84 218.97 601.47 219.87 602.25 220.52C603.03 221.18 603.66 222.12 603.66 222.61C603.66 223.11 605.03 225.4 606.72 227.72C608.4 230.04 612.28 235.99 615.35 240.94C621.45 250.77 623.66 252.91 625.83 251.08C626.57 250.45 627.17 248.8 627.17 247.39C627.17 243.8 618.22 230.23 614.58 228.3C612.97 227.44 609.96 224.98 607.89 222.82C604.2 218.97 600.84 216.92 600.84 218.52ZM697.66 238.19C698.94 239.58 700 241.6 700.01 242.7C700.04 244.31 701.04 244.95 705.19 246.04C711.65 247.72 714.9 250.63 714.38 254.24C714.08 256.33 714.37 256.88 715.79 256.88C716.77 256.88 718.21 257.52 718.98 258.31C720.83 260.19 726.72 260.15 728.79 258.24C730.3 256.86 730.87 257.09 736.05 261.18C740.62 264.8 742.26 265.57 744.83 265.32L748 265.01L742.59 260.72C739.06 257.92 737.35 255.92 737.66 254.96C738.14 253.41 733.02 246.35 731.42 246.35C730.91 246.35 728.72 245.54 726.55 244.55C724.38 243.55 720.41 241.95 717.73 240.99L712.85 239.25L710.49 241.85C709.19 243.27 707.53 244.44 706.81 244.44C704.95 244.44 702.62 241.51 702.24 238.7C701.98 236.74 701.32 236.25 698.63 235.99L695.34 235.67L697.66 238.19ZM722.66 270.75C719.43 285.03 715.24 288.3 708.25 282.01C704.3 278.46 704.25 278.34 705.26 274.73C705.83 272.7 706.1 270.86 705.88 270.63C705.65 270.4 703.39 269.96 700.85 269.65C696.62 269.15 695.97 269.35 693.1 272.08C691.38 273.71 689.59 275.05 689.13 275.05C688.67 275.05 688.29 276.13 688.29 277.45C688.29 278.94 687.75 279.84 686.87 279.84C686.09 279.84 684.53 278.76 683.41 277.45C682.29 276.13 680.91 275.06 680.36 275.06C679.08 275.06 672.3 282.34 672.3 283.72C672.3 284.31 671.51 284.49 670.45 284.15C669.03 283.69 668.47 284.1 668.02 285.93C667.14 289.47 664.94 291.04 656.42 294.2C652.18 295.78 647.57 297.8 646.17 298.69C644.77 299.58 643.53 300.35 643.41 300.41C642.54 300.85 641.08 316.49 641.2 324.08C641.3 330 640.99 333.41 640.37 333.41C639.83 333.41 639.39 334.06 639.39 334.85C639.39 336.73 644.19 336.74 650.29 334.86C652.83 334.07 656.05 333.43 657.44 333.42C658.83 333.42 660.2 333.03 660.48 332.56C660.77 332.1 662.38 331.45 664.06 331.12C665.75 330.8 668.26 329.93 669.65 329.19C671.04 328.46 674.65 327.71 677.68 327.53C682.18 327.27 683.65 327.58 685.74 329.25C687.14 330.38 688.29 332.2 688.29 333.31C688.29 335.81 689.24 335.83 693.64 333.43C695.55 332.39 697.25 331.69 697.43 331.88C697.61 332.06 697.25 333.35 696.62 334.75C695.75 336.69 695.74 337.55 696.59 338.41C697.19 339.03 697.69 340.9 697.69 342.57C697.69 346.43 699.78 348.2 703.98 347.91C705.8 347.79 707.8 348.12 708.42 348.65C709.22 349.32 711.39 348.74 715.62 346.72C720.33 344.47 723.64 341.75 730.6 334.41C738.5 326.08 739.72 324.32 741.18 319.2C743.81 309.93 743.11 303.22 739.35 301.77C737.88 301.2 736.3 299.09 734.85 295.76C733.62 292.93 731.95 290.36 731.14 290.04C730.11 289.64 729.66 288.21 729.66 285.35C729.66 282.63 728.58 278.97 726.48 274.56C723.39 268.05 723.29 267.95 722.66 270.75ZM472.87 274.88C471.94 276.54 469.42 278.43 466.22 279.87L461.07 282.18L461.14 288.74C461.19 293.93 460.87 295.55 459.56 296.52C457.54 298.03 457.35 305.31 459.27 307.88C460.42 309.42 461 309.49 464.3 308.49C467.72 307.44 468.08 307.01 468.57 303.38C468.86 301.2 470.2 296.99 471.53 294.02C474.84 286.66 476.8 278.57 476.12 275.08C475.41 271.5 474.79 271.46 472.87 274.88Z" fill="#D0DE6F" fill-opacity="0.500000" fill-rule="evenodd"/>
</svg>
