<svg width="25.000000" height="25.000000" viewBox="0 0 25 25" fill="none" xmlns="http://www.w3.org/2000/svg" xmlns:xlink="http://www.w3.org/1999/xlink">
	<desc>
			Created with Pixso.
	</desc>
	<defs/>
	<path id="path" d="M13.67 0C19.92 0 25 5.07 25 11.32C25 11.97 24.47 12.5 23.82 12.5C23.17 12.5 22.65 11.97 22.65 11.32C22.65 6.36 18.63 2.34 13.67 2.34C13.02 2.34 12.5 1.82 12.5 1.17C12.5 0.52 13.02 0 13.67 0ZM14.06 9.37C14.16 9.37 14.26 9.38 14.36 9.4C14.46 9.42 14.56 9.45 14.66 9.49C14.75 9.53 14.84 9.58 14.93 9.63C15.01 9.69 15.09 9.76 15.16 9.83C15.23 9.9 15.3 9.98 15.36 10.07C15.41 10.15 15.46 10.24 15.5 10.34C15.54 10.43 15.57 10.53 15.59 10.63C15.61 10.73 15.62 10.83 15.62 10.93C15.62 11.04 15.61 11.14 15.59 11.24C15.57 11.34 15.54 11.44 15.5 11.53C15.46 11.63 15.41 11.72 15.36 11.8C15.3 11.89 15.23 11.97 15.16 12.04C15.09 12.11 15.01 12.18 14.93 12.23C14.84 12.29 14.75 12.34 14.66 12.38C14.56 12.42 14.46 12.45 14.36 12.47C14.26 12.49 14.16 12.5 14.06 12.5C13.96 12.5 13.85 12.49 13.75 12.47C13.65 12.45 13.55 12.42 13.46 12.38C13.36 12.34 13.27 12.29 13.19 12.23C13.1 12.18 13.03 12.11 12.95 12.04C12.88 11.97 12.82 11.89 12.76 11.8C12.7 11.72 12.65 11.63 12.61 11.53C12.57 11.44 12.55 11.34 12.53 11.24C12.51 11.14 12.5 11.04 12.5 10.93C12.5 10.83 12.51 10.73 12.53 10.63C12.55 10.53 12.57 10.43 12.61 10.34C12.65 10.24 12.7 10.15 12.76 10.07C12.82 9.98 12.88 9.9 12.95 9.83C13.03 9.76 13.1 9.69 13.19 9.63C13.27 9.58 13.36 9.53 13.46 9.49C13.55 9.45 13.65 9.42 13.75 9.4C13.85 9.38 13.96 9.37 14.06 9.37ZM12.5 5.86C12.5 5.21 13.02 4.68 13.67 4.68C17.33 4.68 20.31 7.66 20.31 11.32C20.31 11.97 19.79 12.5 19.14 12.5C18.49 12.5 17.96 11.97 17.96 11.32C17.96 8.95 16.04 7.03 13.67 7.03C13.02 7.03 12.5 6.5 12.5 5.86ZM5.73 0.06C6.68 -0.19 7.67 0.29 8.05 1.2L10 5.88C10.33 6.68 10.1 7.6 9.43 8.15L7.03 10.12C8.65 13.56 11.44 16.34 14.87 17.96L16.84 15.56C17.39 14.89 18.31 14.66 19.1 14.99L23.79 16.94C24.7 17.32 25.18 18.31 24.92 19.26L23.75 23.55C23.52 24.4 22.75 25 21.87 25C9.79 25 0 15.2 0 3.12C0 2.24 0.59 1.47 1.44 1.24L5.73 0.06Z" fill="#FFFFFF" fill-opacity="1.000000" fill-rule="nonzero"/>
</svg>
